<svg width="207" height="48" viewBox="0 0 207 48" fill="none" xmlns="http://www.w3.org/2000/svg">
<path d="M14.7177 3.06C19.2303 3.06 23.0184 4.6531 26.0406 7.81862C29.0628 10.9841 30.5739 14.8945 30.5739 19.529C30.5739 24.1634 29.0628 28.0738 26.0406 31.2393C23.0184 34.4048 19.2303 35.9979 14.7177 35.9979H1.61462V3.06H14.7177ZM14.7177 29.7703C17.5743 29.7703 19.8927 28.8186 21.6936 26.9152C23.4738 25.0117 24.3846 22.5497 24.3846 19.5083C24.3846 16.4669 23.4945 13.9841 21.6936 12.1014C19.8927 10.2186 17.5536 9.26689 14.7177 9.26689H8.11442V29.7703H14.7177Z" fill="white"/>
<path d="M35.7074 9.64896C34.6931 9.64896 33.8237 9.27655 33.0992 8.55241C32.354 7.80758 31.9814 6.93861 31.9814 5.94551C31.9814 4.93172 32.354 4.06275 33.0992 3.31792C33.8444 2.5731 34.7138 2.17999 35.7074 2.17999C36.7424 2.17999 37.6325 2.55241 38.3777 3.31792C39.1229 4.08344 39.4955 4.95241 39.4955 5.94551C39.4955 6.9593 39.1229 7.82827 38.3777 8.55241C37.6325 9.27655 36.7424 9.64896 35.7074 9.64896ZM32.6852 36.0076V12.4628H38.7503V35.9869H32.6852V36.0076Z" fill="white"/>
<path d="M60.1335 12.0621H66.0537V34.4483C66.0537 38.0896 64.8531 40.8621 62.4519 42.7655C60.0507 44.669 57.1527 45.6414 53.7579 45.6414C51.2118 45.6414 48.9762 45.1448 47.0511 44.1724C45.126 43.2 43.6356 41.7724 42.6006 39.8896L47.7756 36.931C48.9762 39.1241 51.0255 40.2207 53.9442 40.2207C55.8486 40.2207 57.3597 39.7241 58.4568 38.7103C59.5539 37.6965 60.1128 36.2896 60.1128 34.4276V31.8827C58.3326 34.2621 55.8072 35.4621 52.578 35.4621C49.2453 35.4621 46.4715 34.3034 44.2152 31.9655C41.9589 29.6276 40.8618 26.7724 40.8618 23.4207C40.8618 20.0896 41.9796 17.2552 44.2566 14.8965C46.5336 12.5379 49.2867 11.3586 52.5987 11.3586C55.8279 11.3586 58.3326 12.5586 60.1335 14.9379V12.0621ZM48.8106 28.0965C50.0526 29.2965 51.6258 29.9172 53.5509 29.9172C55.4553 29.9172 57.0492 29.3172 58.2912 28.0965C59.5332 26.8965 60.1542 25.3448 60.1542 23.4621C60.1542 21.6207 59.5332 20.0896 58.2912 18.869C57.0492 17.669 55.476 17.0483 53.5509 17.0483C51.6465 17.0483 50.0526 17.6483 48.8106 18.869C47.5686 20.069 46.9476 21.6 46.9476 23.4621C46.9476 25.3448 47.5686 26.8759 48.8106 28.0965Z" fill="white"/>
<path d="M72.3672 9.64896C71.3529 9.64896 70.4835 9.27655 69.759 8.55241C69.0138 7.80758 68.6412 6.93861 68.6412 5.94551C68.6412 4.93172 69.0138 4.06275 69.759 3.31792C70.4835 2.5731 71.3736 2.17999 72.3672 2.17999C73.4022 2.17999 74.2923 2.55241 75.0375 3.31792C75.7827 4.06275 76.1553 4.95241 76.1553 5.94551C76.1553 6.9593 75.7827 7.82827 75.0375 8.55241C74.2923 9.27655 73.4022 9.64896 72.3672 9.64896ZM69.3657 36.0076V12.4628H75.4308V35.9869H69.3657V36.0076Z" fill="white"/>
<path d="M92.2392 18.1145H86.9193V27.9007C86.9193 28.7076 87.1263 29.3076 87.5403 29.68C87.9543 30.0524 88.5546 30.28 89.3205 30.3214C90.1071 30.3627 91.08 30.3627 92.2392 30.3007V35.8041C88.0578 36.28 85.1184 35.8869 83.421 34.6248C81.7029 33.3628 80.8542 31.1283 80.8542 27.9007V18.1145H76.7556V12.28H80.8542V7.52137L86.9193 5.67999V12.2593H92.2392V18.1145Z" fill="white"/>
<path d="M111.49 11.8221H117.576V35.3462H111.511V32.5738C109.689 34.8704 107.122 36.0083 103.831 36.0083C100.685 36.0083 97.9938 34.8083 95.7582 32.4083C93.5226 30.0083 92.4048 27.0703 92.4048 23.5945C92.4048 20.1186 93.5226 17.16 95.7582 14.76C97.9938 12.36 100.685 11.16 103.831 11.16C107.122 11.16 109.689 12.2979 111.511 14.5945V11.8221H111.49ZM100.291 28.3738C101.513 29.6152 103.065 30.2359 104.949 30.2359C106.833 30.2359 108.385 29.6152 109.627 28.3738C110.869 27.1324 111.49 25.5393 111.49 23.5945C111.49 21.6497 110.869 20.0566 109.627 18.8152C108.385 17.5738 106.833 16.9531 104.949 16.9531C103.065 16.9531 101.513 17.5738 100.291 18.8152C99.0702 20.0566 98.4492 21.6497 98.4492 23.5945C98.4492 25.5393 99.0702 27.1324 100.291 28.3738Z" fill="white"/>
<path d="M120.867 36.0055V1.64001H126.932V35.9848L120.867 36.0055Z" fill="white"/>
<path d="M149.288 3.06H155.747V35.9979H149.288V22.3428H137.055V35.9772H130.555V3.06H137.055V16.1359H149.288V3.06Z" fill="#00BA52"/>
<path d="M174.853 16.511C175.412 15.0007 176.343 13.8835 177.647 13.1179C178.951 12.3731 180.4 11.98 181.994 11.98V18.7662C180.131 18.5386 178.496 18.9317 177.026 19.9042C175.577 20.8766 174.832 22.4904 174.832 24.7455V35.98H168.767V12.4559H174.832V16.511H174.853Z" fill="#00BA52"/>
<path d="M188.425 26.1106C189.233 29.0486 191.447 30.5382 195.07 30.5382C197.388 30.5382 199.148 29.752 200.348 28.1796L205.254 30.9934C202.936 34.3451 199.52 36.021 194.987 36.021C191.096 36.021 187.97 34.8417 185.61 32.483C183.25 30.1244 182.091 27.1658 182.091 23.5865C182.091 20.0486 183.25 17.0899 185.569 14.7106C187.887 12.3313 190.868 11.152 194.511 11.152C197.968 11.152 200.804 12.352 203.06 14.7313C205.296 17.1727 206.414 20.1106 206.414 23.6279C206.414 24.4141 206.331 25.2417 206.186 26.1313H188.425V26.1106ZM188.342 21.4141H200.348C199.997 19.821 199.293 18.621 198.216 17.8348C197.14 17.0486 195.898 16.6555 194.511 16.6555C192.876 16.6555 191.53 17.0692 190.454 17.8968C189.398 18.7451 188.674 19.9037 188.342 21.4141Z" fill="#00BA52"/>
<path d="M162.391 2C161.377 2 160.508 2.37241 159.783 3.13793C159.038 3.88276 158.686 4.77241 158.686 5.76552C158.686 6.77931 159.059 7.64828 159.783 8.37241C160.508 9.11724 161.398 9.46897 162.391 9.46897C163.426 9.46897 164.317 9.09655 165.041 8.37241C165.786 7.62759 166.138 6.75862 166.138 5.76552C166.138 4.75172 165.766 3.88276 165.041 3.13793C164.317 2.3931 163.426 2 162.391 2Z" fill="#00BA52"/>
<path d="M162.412 12.1172C161.708 12.1172 161.046 11.9931 160.425 11.7862L158.645 33.469L162.454 36.8621L166.262 33.469L164.482 11.7862C163.799 11.9931 163.116 12.1172 162.412 12.1172Z" fill="#00BA52"/>
</svg>
