<svg width="104" height="24" viewBox="0 0 104 24" fill="none" xmlns="http://www.w3.org/2000/svg">
<g clip-path="url(#clip0_3304_15535)">
<path d="M7.35516 1.33447C9.61033 1.33447 11.5034 2.13102 13.0138 3.71378C14.5241 5.29654 15.2793 7.25171 15.2793 9.56896C15.2793 11.8862 14.5241 13.8414 13.0138 15.4241C11.5034 17.0069 9.61033 17.8034 7.35516 17.8034H0.806885V1.33447H7.35516ZM7.35516 14.6896C8.78275 14.6896 9.94137 14.2138 10.8414 13.2621C11.731 12.3103 12.1862 11.0793 12.1862 9.55861C12.1862 8.03792 11.7414 6.79654 10.8414 5.85516C9.94137 4.91378 8.7724 4.43792 7.35516 4.43792H4.05516V14.6896H7.35516Z" fill="#001C35"/>
<path d="M17.8449 4.62413C17.338 4.62413 16.9035 4.43792 16.5414 4.07586C16.169 3.70344 15.9828 3.26896 15.9828 2.77241C15.9828 2.26551 16.169 1.83103 16.5414 1.45861C16.9138 1.0862 17.3483 0.889648 17.8449 0.889648C18.3621 0.889648 18.8069 1.07586 19.1793 1.45861C19.5518 1.84137 19.738 2.27586 19.738 2.77241C19.738 3.2793 19.5518 3.71379 19.1793 4.07586C18.8069 4.43792 18.3621 4.62413 17.8449 4.62413ZM16.3345 17.8034V6.03103H19.3655V17.7931H16.3345V17.8034Z" fill="#001C35"/>
<path d="M30.0517 6.03092H33.0103V17.224C33.0103 19.0447 32.4103 20.4309 31.2103 21.3826C30.0103 22.3344 28.562 22.8206 26.8655 22.8206C25.5931 22.8206 24.4758 22.5723 23.5138 22.0861C22.5517 21.5999 21.8069 20.8861 21.2896 19.9447L23.8758 18.4654C24.4758 19.562 25.5 20.1102 26.9586 20.1102C27.9103 20.1102 28.6655 19.862 29.2138 19.3551C29.762 18.8482 30.0413 18.1447 30.0413 17.2137V15.9413C29.1517 17.1309 27.8896 17.7309 26.2758 17.7309C24.6103 17.7309 23.2241 17.1516 22.0965 15.9826C20.9689 14.8137 20.4207 13.3861 20.4207 11.7102C20.4207 10.0447 20.9793 8.62747 22.1172 7.44816C23.2551 6.26885 24.631 5.6792 26.2862 5.6792C27.9 5.6792 29.1517 6.2792 30.0517 7.46885V6.03092ZM24.3931 14.0482C25.0138 14.6482 25.8 14.9585 26.762 14.9585C27.7138 14.9585 28.5103 14.6585 29.131 14.0482C29.7517 13.4482 30.062 12.6723 30.062 11.7309C30.062 10.8102 29.7517 10.0447 29.131 9.43437C28.5103 8.83437 27.7241 8.52403 26.762 8.52403C25.8103 8.52403 25.0138 8.82403 24.3931 9.43437C23.7724 10.0344 23.462 10.7999 23.462 11.7309C23.462 12.6723 23.7724 13.4378 24.3931 14.0482Z" fill="#001C35"/>
<path d="M36.1655 4.62413C35.6586 4.62413 35.2242 4.43792 34.8621 4.07586C34.4897 3.70344 34.3035 3.26896 34.3035 2.77241C34.3035 2.26551 34.4897 1.83103 34.8621 1.45861C35.2242 1.0862 35.669 0.889648 36.1655 0.889648C36.6828 0.889648 37.1276 1.07586 37.5 1.45861C37.8724 1.83103 38.0586 2.27586 38.0586 2.77241C38.0586 3.2793 37.8724 3.71379 37.5 4.07586C37.1276 4.43792 36.6828 4.62413 36.1655 4.62413ZM34.6655 17.8034V6.03103H37.6966V17.7931H34.6655V17.8034Z" fill="#001C35"/>
<path d="M46.0966 8.9482H43.438V13.8413C43.438 14.2448 43.5414 14.5447 43.7483 14.731C43.9552 14.9172 44.2552 15.031 44.638 15.0516C45.0311 15.0723 45.5173 15.0723 46.0966 15.0413V17.793C44.0069 18.031 42.538 17.8344 41.6897 17.2034C40.8311 16.5723 40.4069 15.4551 40.4069 13.8413V8.9482H38.3586V6.03096H40.4069V3.65165L43.438 2.73096V6.02061H46.0966V8.9482Z" fill="#001C35"/>
<path d="M55.7172 6.03123H58.7586V17.7933H55.7276V16.4071C54.8173 17.5554 53.5345 18.1243 51.8897 18.1243C50.3173 18.1243 48.9724 17.5243 47.8552 16.3243C46.7379 15.1243 46.1793 13.6554 46.1793 11.9174C46.1793 10.1795 46.7379 8.7002 47.8552 7.5002C48.9724 6.3002 50.3173 5.7002 51.8897 5.7002C53.5345 5.7002 54.8173 6.26916 55.7276 7.41744V6.03123H55.7172ZM50.1207 14.3071C50.731 14.9278 51.5069 15.2381 52.4483 15.2381C53.3897 15.2381 54.1655 14.9278 54.7862 14.3071C55.4069 13.6864 55.7172 12.8899 55.7172 11.9174C55.7172 10.945 55.4069 10.1485 54.7862 9.52778C54.1655 8.90709 53.3897 8.59675 52.4483 8.59675C51.5069 8.59675 50.731 8.90709 50.1207 9.52778C49.5104 10.1485 49.2 10.945 49.2 11.9174C49.2 12.8899 49.5104 13.6864 50.1207 14.3071Z" fill="#001C35"/>
<path d="M60.4034 17.8034V0.620605H63.4345V17.793L60.4034 17.8034Z" fill="#001C35"/>
<path d="M74.6069 1.33447H77.8345V17.8034H74.6069V10.9759H68.4931V17.7931H65.2449V1.33447H68.4931V7.8724H74.6069V1.33447Z" fill="#00BA52"/>
<path d="M87.3828 8.05849C87.6621 7.30331 88.1276 6.74469 88.7794 6.36193C89.4311 5.98952 90.1552 5.79297 90.9518 5.79297V9.18607C90.0207 9.07228 89.2035 9.26883 88.469 9.75504C87.7449 10.2412 87.3725 11.0481 87.3725 12.1757V17.793H84.3414V6.0309H87.3725V8.05849H87.3828Z" fill="#00BA52"/>
<path d="M94.1655 13.1585C94.569 14.6275 95.6759 15.3723 97.4862 15.3723C98.6448 15.3723 99.5241 14.9792 100.124 14.193L102.576 15.5999C101.417 17.2758 99.7103 18.1137 97.4448 18.1137C95.5 18.1137 93.9379 17.524 92.7586 16.3447C91.5793 15.1654 91 13.6861 91 11.8964C91 10.1275 91.5793 8.64816 92.7379 7.45851C93.8966 6.26885 95.3862 5.6792 97.2069 5.6792C98.9345 5.6792 100.352 6.2792 101.479 7.46885C102.597 8.68954 103.155 10.1585 103.155 11.9171C103.155 12.3102 103.114 12.724 103.041 13.1689H94.1655V13.1585ZM94.1241 10.8102H100.124C99.9483 10.0137 99.5966 9.41368 99.0586 9.02058C98.5207 8.62747 97.9 8.43092 97.2069 8.43092C96.3897 8.43092 95.7172 8.63782 95.1793 9.05161C94.6517 9.47575 94.2897 10.0551 94.1241 10.8102Z" fill="#00BA52"/>
<path d="M81.1552 0.858398C80.6483 0.858398 80.2138 1.04461 79.8517 1.42736C79.4793 1.79978 79.3035 2.24461 79.3035 2.74116C79.3035 3.24805 79.4897 3.68254 79.8517 4.04461C80.2138 4.41702 80.6586 4.59288 81.1552 4.59288C81.6724 4.59288 82.1173 4.40667 82.4793 4.04461C82.8517 3.67219 83.0276 3.23771 83.0276 2.74116C83.0276 2.23426 82.8414 1.79978 82.4793 1.42736C82.1173 1.05495 81.6724 0.858398 81.1552 0.858398Z" fill="#00BA52"/>
<path d="M81.1655 5.91747C80.8137 5.91747 80.4827 5.8554 80.1724 5.75195L79.2827 16.5933L81.1862 18.2899L83.0896 16.5933L82.2 5.75195C81.8586 5.8554 81.5172 5.91747 81.1655 5.91747Z" fill="#00BA52"/>
</g>
<defs>
<clipPath id="clip0_3304_15535">
<rect width="103.448" height="24" fill="white"/>
</clipPath>
</defs>
</svg>
