<svg width="279" height="216" viewBox="0 0 279 216" fill="none" xmlns="http://www.w3.org/2000/svg">
<path d="M0 24C0 10.7452 10.7452 0 24 0H255C268.255 0 279 10.7452 279 24V216H0V24Z" fill="white"/>
<path d="M11 47C11 38.1634 18.1634 31 27 31H252C260.837 31 268 38.1634 268 47V216H11V47Z" fill="#071B33"/>
<path d="M170.5 104.429C170.5 121.266 156.877 134.857 140 134.857C123.123 134.857 109.5 121.266 109.5 104.429C109.5 87.5914 123.123 74 140 74C156.877 74 170.5 87.5914 170.5 104.429ZM201 216H79V195.714C79 173.299 106.348 155.143 140 155.143C173.652 155.143 201 173.299 201 195.714" fill="white"/>
<path d="M193.103 104.269C193.936 108.289 194.507 112.449 194.791 116.715L193.794 116.781C193.93 118.83 194 120.904 194 123C194 125.096 193.93 127.17 193.794 129.219L194.791 129.285C194.507 133.551 193.936 137.711 193.103 141.731L192.124 141.529C191.266 145.672 190.127 149.665 188.736 153.47L189.675 153.813C188.203 157.84 186.451 161.662 184.453 165.236L183.58 164.748C181.512 168.445 179.178 171.871 176.616 174.977L177.388 175.613C174.656 178.925 171.667 181.883 168.463 184.431L167.84 183.648C164.558 186.258 161.051 188.426 157.37 190.091L157.782 191.002C153.951 192.736 149.928 193.94 145.766 194.546L145.621 193.557C143.612 193.85 141.57 194 139.5 194C137.43 194 135.388 193.85 133.379 193.557L133.234 194.546C129.072 193.94 125.049 192.736 121.218 191.002L121.63 190.091C117.949 188.426 114.442 186.258 111.16 183.648L110.537 184.431C107.333 181.883 104.344 178.925 101.612 175.613L102.384 174.977C99.8219 171.871 97.4879 168.445 95.4201 164.748L94.5473 165.236C92.5486 161.662 90.7969 157.84 89.3249 153.813L90.2641 153.47C88.8731 149.665 87.7342 145.672 86.876 141.529L85.8968 141.731C85.0641 137.711 84.4929 133.551 84.2085 129.285L85.2063 129.219C85.0697 127.17 85 125.096 85 123C85 120.904 85.0697 118.83 85.2063 116.781L84.2085 116.715C84.4929 112.449 85.0641 108.289 85.8968 104.269L86.876 104.471C87.7342 100.328 88.8731 96.3352 90.2641 92.5301L89.3249 92.1867C90.7969 88.1597 92.5486 84.3381 94.5473 80.7642L95.4201 81.2523C97.4879 77.5546 99.8219 74.1291 102.384 71.023L101.612 70.3868C104.344 67.0751 107.333 64.1172 110.537 61.5694L111.16 62.3521C114.442 59.742 117.949 57.5744 121.63 55.9089L121.218 54.9978C125.049 53.2643 129.072 52.0604 133.234 51.4537L133.379 52.4433C135.388 52.1504 137.43 52 139.5 52C141.57 52 143.612 52.1504 145.621 52.4433L145.766 51.4537C149.928 52.0604 153.951 53.2643 157.782 54.9978L157.37 55.9089C161.051 57.5744 164.558 59.742 167.84 62.3521L168.463 61.5694C171.667 64.1172 174.656 67.0751 177.388 70.3867L176.616 71.023C179.178 74.1291 181.512 77.5546 183.58 81.2523L184.453 80.7642C186.451 84.3381 188.203 88.1597 189.675 92.1867L188.736 92.5301C190.127 96.3352 191.266 100.328 192.124 104.471L193.103 104.269Z" stroke="#00BA52" stroke-width="2" stroke-dasharray="12 12"/>
<rect x="111" y="14" width="57" height="5" rx="2.5" fill="#2A523F" fill-opacity="0.2"/>
</svg>
