<svg width="311" height="406" viewBox="0 0 311 406" fill="none" xmlns="http://www.w3.org/2000/svg">
<path d="M310.419 185.323C310.676 189.216 310.849 193.14 310.935 197.093L309.936 197.115C309.978 199.07 310 201.032 310 203C310 204.968 309.978 206.93 309.936 208.885L310.935 208.907C310.849 212.86 310.676 216.784 310.419 220.677L309.421 220.611C309.161 224.54 308.815 228.437 308.386 232.299L309.38 232.41C308.943 236.338 308.42 240.23 307.814 244.082L306.826 243.927C306.213 247.821 305.514 251.675 304.732 255.484L305.712 255.685C304.916 259.561 304.034 263.392 303.07 267.173L302.101 266.926C301.127 270.744 300.069 274.511 298.928 278.224L299.884 278.518C298.723 282.298 297.477 286.023 296.149 289.687L295.209 289.346C293.867 293.051 292.441 296.694 290.935 300.271L291.857 300.659C290.319 304.31 288.698 307.892 286.997 311.402L286.097 310.966C284.378 314.512 282.576 317.984 280.696 321.376L281.571 321.861C279.653 325.322 277.654 328.7 275.577 331.992L274.731 331.458C272.625 334.795 270.44 338.041 268.178 341.192L268.99 341.775C266.68 344.994 264.291 348.114 261.826 351.13L261.051 350.497C258.56 353.546 255.992 356.488 253.351 359.317L254.082 359.999C251.377 362.897 248.596 365.678 245.744 368.337L245.062 367.605C242.184 370.287 239.234 372.842 236.216 375.265L236.842 376.045C233.755 378.523 230.597 380.864 227.372 383.062L226.809 382.236C223.566 384.447 220.256 386.511 216.883 388.423L217.376 389.293C213.942 391.239 210.444 393.029 206.886 394.654L206.471 393.745C202.914 395.37 199.299 396.829 195.631 398.116L195.962 399.06C192.253 400.361 188.489 401.488 184.676 402.432L184.436 401.462C180.662 402.397 176.839 403.153 172.974 403.722L173.12 404.711C169.254 405.28 165.345 405.665 161.399 405.857L161.35 404.858C159.409 404.952 157.459 405 155.5 405C153.541 405 151.591 404.952 149.65 404.858L149.601 405.857C145.655 405.665 141.746 405.28 137.88 404.711L138.026 403.722C134.161 403.153 130.338 402.397 126.564 401.462L126.323 402.432C122.511 401.488 118.747 400.361 115.038 399.06L115.369 398.116C111.701 396.829 108.086 395.37 104.529 393.745L104.114 394.654C100.556 393.029 97.0577 391.239 93.6235 389.293L94.1166 388.423C90.7444 386.511 87.4341 384.447 84.1907 382.236L83.6275 383.062C80.403 380.864 77.2448 378.523 74.1581 376.045L74.7841 375.265C71.7657 372.842 68.8155 370.287 65.9381 367.605L65.2564 368.337C62.4036 365.678 59.6226 362.897 56.9177 359.999L57.6488 359.317C55.0079 356.488 52.4397 353.546 49.9486 350.497L49.1742 351.13C46.7094 348.114 44.32 344.994 42.0099 341.776L42.8223 341.192C40.5604 338.041 38.3747 334.795 36.2692 331.458L35.4235 331.992C33.3462 328.7 31.3467 325.322 29.4289 321.861L30.3035 321.376C28.4237 317.984 26.6224 314.512 24.9032 310.966L24.0034 311.402C22.3021 307.892 20.681 304.31 19.1434 300.659L20.065 300.271C18.5588 296.694 17.133 293.051 15.7908 289.346L14.8506 289.687C13.5231 286.023 12.2771 282.298 11.1158 278.518L12.0717 278.224C10.9313 274.511 9.87268 270.744 8.89891 266.926L7.92993 267.173C6.96555 263.392 6.08406 259.561 5.28828 255.685L6.26785 255.484C5.48589 251.675 4.78697 247.821 4.17382 243.927L3.18599 244.082C2.57952 240.23 2.05664 236.338 1.61994 232.41L2.61382 232.299C2.18454 228.437 1.83884 224.54 1.57921 220.611L0.581381 220.677C0.324152 216.784 0.151085 212.86 0.0645684 208.907L1.06433 208.885C1.02154 206.93 1 204.968 1 203C1 201.032 1.02154 199.07 1.06433 197.115L0.0645696 197.093C0.151087 193.14 0.324155 189.216 0.581385 185.323L1.57921 185.389C1.83885 181.46 2.18455 177.563 2.61382 173.701L1.61994 173.59C2.05664 169.662 2.57952 165.77 3.18599 161.918L4.17382 162.073C4.78698 158.179 5.48589 154.325 6.26786 150.516L5.28828 150.315C6.08407 146.439 6.96555 142.608 7.92993 138.827L8.89891 139.074C9.87268 135.256 10.9313 131.489 12.0717 127.776L11.1158 127.482C12.2771 123.702 13.5231 119.977 14.8506 116.313L15.7908 116.654C17.133 112.949 18.5588 109.306 20.065 105.729L19.1434 105.341C20.681 101.69 22.3021 98.1079 24.0034 94.5981L24.9032 95.0343C26.6224 91.4876 28.4237 88.016 30.3035 84.6238L29.4289 84.1391C31.3467 80.6784 33.3462 77.2997 35.4235 74.008L36.2692 74.5417C38.3747 71.2052 40.5604 67.9589 42.8223 64.8076L42.0099 64.2245C44.32 61.0062 46.7094 57.8863 49.1742 54.8699L49.9486 55.5027C52.4397 52.454 55.0079 49.5123 57.6488 46.683L56.9177 46.0006C59.6226 43.1027 62.4036 40.3216 65.2564 37.6632L65.9381 38.3948C68.8155 35.7134 71.7657 33.1582 74.7841 30.735L74.1581 29.9552C77.2448 27.4771 80.403 25.1358 83.6275 22.9378L84.1908 23.7641C87.4341 21.5533 90.7444 19.4889 94.1166 17.5774L93.6235 16.7074C97.0577 14.7608 100.556 12.9713 104.114 11.3458L104.529 12.2554C108.086 10.6305 111.701 9.17098 115.369 7.88389L115.038 6.94028C118.747 5.63908 122.511 4.51245 126.324 3.56755L126.564 4.53819C130.338 3.60291 134.161 2.84721 138.026 2.2781L137.88 1.28876C141.746 0.719605 145.655 0.335487 149.601 0.143354L149.65 1.14217C151.591 1.04767 153.541 1 155.5 1C157.459 1 159.409 1.04767 161.35 1.14217L161.399 0.143355C165.345 0.335489 169.254 0.719608 173.12 1.28876L172.974 2.2781C176.839 2.84721 180.662 3.60291 184.436 4.5382L184.676 3.56756C188.489 4.51246 192.253 5.63908 195.962 6.94028L195.631 7.88389C199.299 9.17099 202.914 10.6305 206.471 12.2554L206.886 11.3458C210.444 12.9713 213.942 14.7608 217.376 16.7074L216.883 17.5774C220.256 19.4889 223.566 21.5533 226.809 23.7641L227.372 22.9378C230.597 25.1358 233.755 27.4771 236.842 29.9552L236.216 30.735C239.234 33.1582 242.184 35.7134 245.062 38.3948L245.744 37.6632C248.596 40.3216 251.377 43.1027 254.082 46.0006L253.351 46.6829C255.992 49.5123 258.56 52.454 261.051 55.5027L261.826 54.8699C264.291 57.8862 266.68 61.0062 268.99 64.2245L268.178 64.8076C270.44 67.9588 272.625 71.2052 274.731 74.5417L275.577 74.008C277.654 77.2997 279.653 80.6784 281.571 84.1391L280.696 84.6238C282.576 88.016 284.378 91.4876 286.097 95.0343L286.997 94.5981C288.698 98.1079 290.319 101.69 291.857 105.341L290.935 105.729C292.441 109.306 293.867 112.949 295.209 116.654L296.149 116.313C297.477 119.977 298.723 123.702 299.884 127.482L298.928 127.776C300.069 131.489 301.127 135.256 302.101 139.074L303.07 138.827C304.034 142.608 304.916 146.439 305.712 150.315L304.732 150.516C305.514 154.325 306.213 158.179 306.826 162.073L307.814 161.918C308.421 165.77 308.943 169.662 309.38 173.59L308.386 173.701C308.815 177.563 309.161 181.46 309.421 185.389L310.419 185.323Z" stroke="#00BA52" stroke-width="2" stroke-dasharray="12 12"/>
</svg>
