<svg width="279" height="216" viewBox="0 0 279 216" fill="none" xmlns="http://www.w3.org/2000/svg">
<path d="M0 24C0 10.7452 10.7452 0 24 0H255C268.255 0 279 10.7452 279 24V216H0V24Z" fill="white"/>
<path d="M11 47C11 38.1634 18.1634 31 27 31H252C260.837 31 268 38.1634 268 47V216H11V47Z" fill="#071B33"/>
<path d="M116.812 123.5V93.25C116.812 87.2329 119.203 81.4622 123.458 77.2075C127.712 72.9528 133.483 70.5625 139.5 70.5625C145.517 70.5625 151.288 72.9528 155.542 77.2075C159.797 81.4622 162.188 87.2329 162.188 93.25V123.5C162.188 129.517 159.797 135.288 155.542 139.542C151.288 143.797 145.517 146.188 139.5 146.188C133.483 146.188 127.712 143.797 123.458 139.542C119.203 135.288 116.812 129.517 116.812 123.5ZM177.312 123.5C177.312 122.497 176.914 121.535 176.205 120.826C175.496 120.117 174.534 119.719 173.531 119.719C172.528 119.719 171.567 120.117 170.857 120.826C170.148 121.535 169.75 122.497 169.75 123.5C169.75 131.523 166.563 139.217 160.89 144.89C155.217 150.563 147.523 153.75 139.5 153.75C131.477 153.75 123.783 150.563 118.11 144.89C112.437 139.217 109.25 131.523 109.25 123.5C109.25 122.497 108.852 121.535 108.142 120.826C107.433 120.117 106.472 119.719 105.469 119.719C104.466 119.719 103.504 120.117 102.795 120.826C102.086 121.535 101.688 122.497 101.688 123.5C101.699 132.871 105.185 141.904 111.471 148.854C117.757 155.803 126.396 160.175 135.719 161.123V172.656C135.719 173.659 136.117 174.621 136.826 175.33C137.535 176.039 138.497 176.438 139.5 176.438C140.503 176.438 141.465 176.039 142.174 175.33C142.883 174.621 143.281 173.659 143.281 172.656V161.123C152.604 160.175 161.243 155.803 167.529 148.854C173.815 141.904 177.301 132.871 177.312 123.5Z" fill="white"/>
<circle cx="164.978" cy="164.895" r="14.8188" fill="#CF3917" stroke="#071B33" stroke-width="3.10256"/>
<path fill-rule="evenodd" clip-rule="evenodd" d="M166.047 164.896L170.064 160.879C170.356 160.587 170.356 160.1 170.064 159.808C169.922 159.668 169.729 159.589 169.529 159.589C169.329 159.589 169.137 159.668 168.994 159.808L164.976 163.825L160.959 159.808C160.816 159.668 160.624 159.589 160.424 159.589C160.224 159.589 160.031 159.668 159.888 159.808C159.596 160.1 159.596 160.587 159.888 160.879L163.906 164.896L159.888 168.913C159.596 169.205 159.596 169.692 159.888 169.984C160.18 170.276 160.667 170.276 160.959 169.984L164.976 165.967L168.994 169.984C169.286 170.276 169.772 170.276 170.064 169.984C170.356 169.692 170.356 169.205 170.064 168.913L166.047 164.896Z" fill="white"/>
<rect x="111" y="14" width="57" height="5" rx="2.5" fill="#2A523F" fill-opacity="0.2"/>
</svg>
